<svg width="17" height="16" viewBox="0 0 17 16" fill="none" xmlns="http://www.w3.org/2000/svg">
<path d="M9.18082 3.81794C9.18082 3.98169 9.18082 4.51541 9.18082 5.27366H11.7878L11.5052 7.59763H9.18082C9.18082 11.1816 9.18082 15.9843 9.18082 15.9843H6.09563C6.09563 15.9843 6.09563 11.2452 6.09563 7.59763H4.48804V5.27366H6.09563C6.09563 4.35204 6.09563 3.69669 6.09563 3.51422C6.09563 2.64485 6.03013 2.23235 6.39954 1.55866C6.76913 0.885005 7.81163 -0.00543266 9.61472 0.0160048C11.4183 0.0382236 12.1785 0.211724 12.1785 0.211724L11.7878 2.6885C11.7878 2.6885 10.6362 2.38441 10.0709 2.49279C9.50635 2.60119 9.18082 2.94894 9.18082 3.81794Z" fill="white"/>
</svg>
