<svg width="16" height="16" viewBox="0 0 16 16" fill="none" xmlns="http://www.w3.org/2000/svg">
<g clip-path="url(#clip0_2615_1692)">
<path d="M7.99992 14.6668C6.57042 14.6668 5.54174 14.6661 4.73972 14.5883C3.94689 14.5115 3.43972 14.3638 3.03497 14.1095C2.57237 13.8188 2.1812 13.4277 1.89052 12.9651C1.63628 12.5604 1.4885 12.0532 1.41174 11.2604C1.33396 10.4583 1.33325 9.42966 1.33325 8.00016C1.33325 6.57067 1.33396 5.54198 1.41174 4.73996C1.4885 3.94713 1.63628 3.43996 1.89052 3.03521C2.18119 2.5726 2.57236 2.18143 3.03497 1.89077C3.43972 1.63653 3.94689 1.48875 4.73972 1.41198C5.54164 1.3342 6.57032 1.3335 7.99992 1.3335C9.42941 1.3335 10.4581 1.3342 11.2601 1.41198C12.0529 1.48875 12.5601 1.63653 12.9649 1.89077C13.4274 2.18144 13.8186 2.57261 14.1092 3.03521C14.3636 3.43996 14.5112 3.94713 14.5881 4.73996C14.6659 5.54198 14.6666 6.57067 14.6666 8.00016C14.6666 9.42966 14.6659 10.4583 14.5881 11.2604C14.5112 12.0532 14.3636 12.5604 14.1092 12.9651C13.8186 13.4277 13.4274 13.8188 12.9649 14.1095C12.5601 14.3638 12.0529 14.5115 11.2601 14.5883C10.4581 14.6661 9.42941 14.6668 7.99992 14.6668Z" fill="white" stroke="white" stroke-width="2"/>
<path d="M7.99992 11.3333C9.47268 11.3333 10.6666 10.1394 10.6666 8.66667C10.6666 7.19391 9.47268 6 7.99992 6C6.52716 6 5.33325 7.19391 5.33325 8.66667C5.33325 10.1394 6.52716 11.3333 7.99992 11.3333Z" fill="white" stroke="black" stroke-width="2"/>
<path d="M11.25 5.5C11.6642 5.5 12 5.16421 12 4.75C12 4.33579 11.6642 4 11.25 4C10.8358 4 10.5 4.33579 10.5 4.75C10.5 5.16421 10.8358 5.5 11.25 5.5Z" fill="black"/>
</g>
<defs>
<clipPath id="clip0_2615_1692">
<rect width="16" height="16" fill="white"/>
</clipPath>
</defs>
</svg>
