<svg width="17" height="16" viewBox="0 0 17 16" fill="none" xmlns="http://www.w3.org/2000/svg">
<path d="M12.5504 3.358C11.891 2.59144 11.5456 1.60104 11.5731 0.592723L9.10925 0.533203C9.10925 0.533203 9.10925 0.638323 9.10925 0.780083V10.6602C9.14365 13.786 4.20509 13.7102 4.59581 10.2551C4.83469 8.88136 6.31085 8.03592 7.62253 8.51384V5.99992C4.76685 5.50264 2.06061 7.7756 2.08909 10.6713C2.33869 16.9513 11.3461 16.9521 11.596 10.6713C11.5331 10.4465 11.5683 6.26152 11.5593 5.90856C12.6797 6.60568 13.9832 6.95416 15.3033 6.90952V4.3132C14.0829 4.3132 13.1515 3.98872 12.5504 3.358Z" fill="white"/>
</svg>
