<svg width="16" height="14" viewBox="0 0 16 14" fill="none" xmlns="http://www.w3.org/2000/svg">
<path fill-rule="evenodd" clip-rule="evenodd" d="M16 1.91193C15.4121 2.17965 14.7791 2.3607 14.1152 2.4416C14.7932 2.02556 15.3135 1.36588 15.5586 0.580037C14.9238 0.965255 14.2222 1.2455 13.4728 1.39573C12.8755 0.741825 12.0218 0.333496 11.0771 0.333496C9.26548 0.333496 7.79574 1.84066 7.79574 3.69933C7.79574 3.9632 7.82391 4.21938 7.88026 4.46592C5.15208 4.32531 2.73381 2.98668 1.11381 0.947917C0.831132 1.44677 0.669596 2.02556 0.669596 2.64191C0.669596 3.80912 1.24905 4.83958 2.12995 5.4434C1.59277 5.42703 1.08563 5.27391 0.642365 5.02352V5.06493C0.642365 6.69632 1.77402 8.0571 3.27663 8.36527C3.00147 8.44424 2.71128 8.48373 2.41169 8.48373C2.20039 8.48373 1.99378 8.46351 1.79374 8.42402C2.21166 9.76073 3.42313 10.7344 4.86001 10.7604C3.7368 11.6637 2.32059 12.202 0.783234 12.202C0.518398 12.202 0.256383 12.1866 0 12.1558C1.45284 13.1092 3.17896 13.6668 5.03187 13.6668C11.0705 13.6668 14.3715 8.53862 14.3715 4.09033C14.3715 3.94394 14.3687 3.79756 14.3631 3.65407C15.0045 3.17929 15.5614 2.58702 16 1.91193Z" fill="white"/>
</svg>
