<svg width="41" height="24" viewBox="0 0 41 24" fill="none" xmlns="http://www.w3.org/2000/svg">
<path fill-rule="evenodd" clip-rule="evenodd" d="M28.7866 23.9651C35.5265 23.9651 40.9902 18.8178 40.9902 12.4683C40.9902 6.1188 35.5265 0.971527 28.7866 0.971527C25.766 0.971527 23.0018 2.00539 20.8708 3.718C18.7398 2.00544 15.9755 0.971601 12.955 0.971601C6.21517 0.971601 0.751465 6.11888 0.751465 12.4684C0.751465 18.8179 6.21517 23.9651 12.955 23.9651C15.9756 23.9651 18.7399 22.9313 20.8709 21.2187C23.0018 22.9312 25.7661 23.9651 28.7866 23.9651Z" fill="#FF0006"/>
<path fill-rule="evenodd" clip-rule="evenodd" d="M20.8711 21.2185C23.4949 19.1098 25.1586 15.9721 25.1586 12.4683C25.1586 8.96452 23.4949 5.82682 20.8711 3.7181C23.0021 2.00544 25.7664 0.971527 28.7871 0.971527C35.5269 0.971527 40.9906 6.1188 40.9906 12.4683C40.9906 18.8178 35.5269 23.9651 28.7871 23.9651C25.7664 23.9651 23.0021 22.9311 20.8711 21.2185Z" fill="#F9A000"/>
<path fill-rule="evenodd" clip-rule="evenodd" d="M20.871 21.218C23.4948 19.1093 25.1586 15.9716 25.1586 12.4678C25.1586 8.96406 23.4948 5.82637 20.871 3.71765C18.2472 5.82637 16.5835 8.96406 16.5835 12.4678C16.5835 15.9716 18.2472 19.1093 20.871 21.218Z" fill="#FF5E00"/>
</svg>
