<svg width="20" height="16" viewBox="0 0 20 16" fill="none" xmlns="http://www.w3.org/2000/svg">
<path d="M19.47 7.185L18.44 5.755C18.2095 5.43121 17.9051 5.16706 17.552 4.98445C17.199 4.80184 16.8075 4.70604 16.41 4.705H12.03V2.565C12.03 1.90196 11.7666 1.26608 11.2978 0.797235C10.8289 0.328395 10.193 0.0650024 9.53 0.0650024H2.56C1.89753 0.0668496 1.26272 0.330835 0.794275 0.799276C0.325834 1.26772 0.0618486 1.90253 0.0600014 2.565V12.505C0.0600014 12.9028 0.218037 13.2844 0.499341 13.5657C0.780646 13.847 1.16218 14.005 1.56 14.005H2.78C2.85551 14.54 3.12171 15.0298 3.52961 15.3842C3.93751 15.7385 4.45967 15.9337 5 15.9337C5.54034 15.9337 6.0625 15.7385 6.4704 15.3842C6.87829 15.0298 7.14449 14.54 7.22 14.005H12.78C12.8555 14.54 13.1217 15.0298 13.5296 15.3842C13.9375 15.7385 14.4597 15.9337 15 15.9337C15.5403 15.9337 16.0625 15.7385 16.4704 15.3842C16.8783 15.0298 17.1445 14.54 17.22 14.005H18.44C18.8378 14.005 19.2194 13.847 19.5007 13.5657C19.782 13.2844 19.94 12.9028 19.94 12.505V8.635C19.9376 8.11461 19.7733 7.60787 19.47 7.185ZM5 14.935C4.75277 14.935 4.5111 14.8617 4.30554 14.7243C4.09998 14.587 3.93976 14.3918 3.84515 14.1634C3.75054 13.9349 3.72579 13.6836 3.77402 13.4411C3.82225 13.1987 3.9413 12.9759 4.11612 12.8011C4.29093 12.6263 4.51366 12.5073 4.75614 12.459C4.99861 12.4108 5.24995 12.4355 5.47836 12.5302C5.70676 12.6248 5.90199 12.785 6.03934 12.9905C6.17669 13.1961 6.25 13.4378 6.25 13.685C6.25 14.0165 6.11831 14.3345 5.88388 14.5689C5.64946 14.8033 5.33152 14.935 5 14.935ZM11.03 13.005H7.15C7.0044 12.5491 6.71766 12.1513 6.3312 11.8691C5.94474 11.5868 5.47856 11.4347 5 11.4347C4.52144 11.4347 4.05526 11.5868 3.6688 11.8691C3.28234 12.1513 2.9956 12.5491 2.85 13.005H1.56C1.42739 13.005 1.30022 12.9523 1.20645 12.8586C1.11268 12.7648 1.06 12.6376 1.06 12.505V2.565C1.06 2.16718 1.21804 1.78565 1.49934 1.50434C1.78065 1.22304 2.16218 1.065 2.56 1.065H9.53C9.92782 1.065 10.3094 1.22304 10.5907 1.50434C10.872 1.78565 11.03 2.16718 11.03 2.565V13.005ZM15 14.935C14.7528 14.935 14.5111 14.8617 14.3055 14.7243C14.1 14.587 13.9398 14.3918 13.8452 14.1634C13.7505 13.9349 13.7258 13.6836 13.774 13.4411C13.8223 13.1987 13.9413 12.9759 14.1161 12.8011C14.2909 12.6263 14.5137 12.5073 14.7561 12.459C14.9986 12.4108 15.2499 12.4355 15.4784 12.5302C15.7068 12.6248 15.902 12.785 16.0393 12.9905C16.1767 13.1961 16.25 13.4378 16.25 13.685C16.25 14.0165 16.1183 14.3345 15.8839 14.5689C15.6495 14.8033 15.3315 14.935 15 14.935ZM18.94 12.505C18.94 12.6376 18.8873 12.7648 18.7936 12.8586C18.6998 12.9523 18.5726 13.005 18.44 13.005H17.15C17.0044 12.5491 16.7177 12.1513 16.3312 11.8691C15.9447 11.5868 15.4786 11.4347 15 11.4347C14.5214 11.4347 14.0553 11.5868 13.6688 11.8691C13.2823 12.1513 12.9956 12.5491 12.85 13.005H12.03V5.705H16.41C16.6486 5.7066 16.8834 5.76449 17.0954 5.87396C17.3074 5.98344 17.4906 6.1414 17.63 6.335L18.66 7.765C18.84 8.01961 18.9377 8.32322 18.94 8.635V12.505Z" fill="#797979"/>
<path d="M16.029 8.20502H14.029C13.8964 8.20502 13.7692 8.15234 13.6754 8.05857C13.5817 7.9648 13.529 7.83763 13.529 7.70502C13.529 7.57241 13.5817 7.44523 13.6754 7.35146C13.7692 7.2577 13.8964 7.20502 14.029 7.20502H16.029C16.1616 7.20502 16.2888 7.2577 16.3826 7.35146C16.4763 7.44523 16.529 7.57241 16.529 7.70502C16.529 7.83763 16.4763 7.9648 16.3826 8.05857C16.2888 8.15234 16.1616 8.20502 16.029 8.20502Z" fill="#797979"/>
</svg>
