<svg width="25" height="24" viewBox="0 0 25 24" fill="none" xmlns="http://www.w3.org/2000/svg">
<path fill-rule="evenodd" clip-rule="evenodd" d="M7.76859 1.25H16.898C17.4679 1.24998 17.9519 1.24997 18.3518 1.29132C18.7776 1.33534 19.1711 1.43094 19.5429 1.66071C19.9147 1.89048 20.1762 2.19971 20.406 2.56088C20.6218 2.9001 20.8382 3.33297 21.0931 3.8428L21.1096 3.87574C21.1193 3.89518 21.1282 3.91504 21.1362 3.93526L22.5398 7.4834C22.7068 7.90559 22.8919 8.4323 22.946 8.97128C23.0014 9.52258 22.9254 10.1541 22.4934 10.7019C22.1401 11.15 21.6488 11.4863 21.0833 11.6463V21.25H22.3333C22.7475 21.25 23.0833 21.5858 23.0833 22C23.0833 22.4142 22.7475 22.75 22.3333 22.75H2.33333C1.91912 22.75 1.58333 22.4142 1.58333 22C1.58333 21.5858 1.91912 21.25 2.33333 21.25H3.58333V11.6464C3.01779 11.4863 2.52645 11.15 2.17308 10.7019C1.74112 10.1541 1.66515 9.52257 1.72051 8.97127C1.77463 8.43229 1.95972 7.90559 2.12673 7.4834L3.53034 3.93526C3.53834 3.91504 3.54721 3.89518 3.55694 3.87574L3.57343 3.84275C3.82831 3.33295 4.04472 2.90009 4.26056 2.56088C4.49037 2.19971 4.75186 1.89048 5.12364 1.66071C5.49541 1.43094 5.88894 1.33534 6.31475 1.29132C6.71467 1.24997 7.19862 1.24998 7.76859 1.25ZM18.3332 10.8875C18.6692 11.2433 19.0991 11.5096 19.5833 11.6465V21.25H15.5833V18.4678C15.5833 18.028 15.5833 17.6486 15.5551 17.3374C15.5253 17.0082 15.4592 16.6822 15.2819 16.375C15.0844 16.033 14.8003 15.7489 14.4583 15.5514C14.1511 15.3741 13.8251 15.308 13.496 15.2782C13.1847 15.25 12.8053 15.25 12.3655 15.25H12.3011C11.8613 15.25 11.4819 15.25 11.1706 15.2782C10.8415 15.308 10.5155 15.3741 10.2083 15.5514C9.86629 15.7489 9.58225 16.033 9.38477 16.375C9.2074 16.6822 9.14135 17.0082 9.11151 17.3374C9.0833 17.6486 9.08331 18.028 9.08333 18.4677V21.25H5.08333V11.6465C5.56746 11.5095 5.99731 11.2433 6.33325 10.8875C6.83463 11.4186 7.54523 11.75 8.33324 11.75C9.12126 11.75 9.83186 11.4186 10.3332 10.8875C10.8346 11.4186 11.5452 11.75 12.3332 11.75C13.1212 11.75 13.8318 11.4186 14.3332 10.8875C14.8346 11.4186 15.5452 11.75 16.3332 11.75C17.1212 11.75 17.8318 11.4186 18.3332 10.8875ZM10.5833 21.25H14.0833V18.5C14.0833 18.0189 14.0826 17.7082 14.0612 17.4727C14.0408 17.2476 14.0064 17.1659 13.9828 17.125C13.917 17.011 13.8223 16.9163 13.7083 16.8505C13.6674 16.8269 13.5857 16.7925 13.3606 16.7721C13.1251 16.7507 12.8144 16.75 12.3333 16.75C11.8522 16.75 11.5415 16.7507 11.306 16.7721C11.0809 16.7925 10.9992 16.8269 10.9583 16.8505C10.8443 16.9163 10.7496 17.011 10.6838 17.125C10.6602 17.1659 10.6258 17.2476 10.6054 17.4727C10.584 17.7082 10.5833 18.0189 10.5833 18.5V21.25ZM7.08324 9C7.08324 9.69036 7.64289 10.25 8.33324 10.25C9.0236 10.25 9.58324 9.69036 9.58324 9C9.58324 8.58579 9.91903 8.25 10.3332 8.25C10.7474 8.25 11.0832 8.58579 11.0832 9C11.0832 9.69036 11.6429 10.25 12.3332 10.25C13.0236 10.25 13.5832 9.69036 13.5832 9C13.5832 8.58579 13.919 8.25 14.3332 8.25C14.7474 8.25 15.0832 8.58579 15.0832 9C15.0832 9.69036 15.6429 10.25 16.3332 10.25C17.0236 10.25 17.5832 9.69036 17.5832 9C17.5832 8.58579 17.919 8.25 18.3332 8.25C18.7474 8.25 19.0832 8.58579 19.0832 9C19.0832 9.69036 19.6429 10.25 20.3332 10.25C20.7312 10.25 21.0855 10.0649 21.3156 9.77305C21.4295 9.62859 21.4846 9.43094 21.4535 9.12114C21.4212 8.79903 21.3023 8.43275 21.145 8.03518L19.7534 4.51739C19.4857 3.98204 19.3068 3.62749 19.1404 3.36612C18.9805 3.1147 18.8658 3.00562 18.7543 2.93669C18.6428 2.86776 18.4939 2.81401 18.1975 2.78336C17.8838 2.75093 17.4779 2.75 16.8611 2.75H7.80547C7.18866 2.75 6.78273 2.75093 6.46902 2.78336C6.1726 2.81401 6.02377 2.86776 5.91223 2.93669C5.8007 3.00562 5.68607 3.1147 5.52609 3.36612C5.35979 3.62749 5.18088 3.98204 4.91316 4.51739L3.52156 8.03518C3.36428 8.43275 3.24535 8.79903 3.213 9.12115C3.18189 9.43095 3.23699 9.62861 3.35092 9.77307C3.58103 10.0649 3.93529 10.25 4.33324 10.25C5.0236 10.25 5.58324 9.69036 5.58324 9C5.58324 8.58579 5.91903 8.25 6.33324 8.25C6.74746 8.25 7.08324 8.58579 7.08324 9Z" fill="#797979"/>
</svg>
