<svg width="24" height="24" viewBox="0 0 24 24" fill="none" xmlns="http://www.w3.org/2000/svg">
<path d="M9.42224 0.75C8.71949 0.75 8.48474 0.90825 8.48474 1.6875V2.39025H6.37499C4.98974 2.39025 4.73474 2.646 4.73474 4.0305V21.609C4.73474 22.9942 4.99049 23.2493 6.37499 23.2493H17.625C19.0102 23.2493 19.2652 22.9935 19.2652 21.609V4.0305C19.2652 2.64525 19.0095 2.39025 17.625 2.39025H15.5152V1.6875C15.5152 0.909 15.2812 0.75 14.5777 0.75H9.42224ZM6.37499 5.67225C6.37499 3.79725 6.14099 4.032 8.01524 4.032C8.95274 4.032 15.2812 4.032 15.984 4.032C17.859 4.032 17.6242 3.798 17.6242 5.67225C17.6242 6.60975 17.6242 19.032 17.6242 19.9695C17.6242 21.8445 17.8582 21.6097 15.984 21.6097C15.0465 21.6097 8.95274 21.6097 8.01524 21.6097C6.14024 21.6097 6.37499 21.8438 6.37499 19.9695C6.37499 19.0312 6.37499 6.60975 6.37499 5.67225ZM7.54649 8.9535H16.4527C16.7115 8.9535 16.9215 9.1635 16.9215 9.42225V12.0007C16.9215 12.2595 16.7115 12.4695 16.4527 12.4695H7.54649C7.28774 12.4695 7.07774 12.2595 7.07774 12.0007V9.42225C7.07774 9.1635 7.28774 8.9535 7.54649 8.9535ZM7.54649 13.1722H16.4527C16.7115 13.1722 16.9215 13.3822 16.9215 13.641V16.2195C16.9215 16.4782 16.7115 16.6882 16.4527 16.6882H7.54649C7.28774 16.6882 7.07774 16.4782 7.07774 16.2195V13.641C7.07774 13.3822 7.28774 13.1722 7.54649 13.1722ZM7.54649 17.391H16.4527C16.7115 17.391 16.9215 17.601 16.9215 17.8597V20.4382C16.9215 20.697 16.7115 20.907 16.4527 20.907H7.54649C7.28774 20.907 7.07774 20.697 7.07774 20.4382V17.8597C7.07774 17.601 7.28774 17.391 7.54649 17.391Z" fill="#4E4E4E"/>
</svg>
