<svg width="24" height="24" viewBox="0 0 24 24" fill="none" xmlns="http://www.w3.org/2000/svg">
<path d="M7 11C7 9.11438 7 8.17157 7.58579 7.58579C8.17157 7 9.11438 7 11 7H13C14.8856 7 15.8284 7 16.4142 7.58579C17 8.17157 17 9.11438 17 11V13C17 14.8856 17 15.8284 16.4142 16.4142C15.8284 17 14.8856 17 13 17H11C9.11438 17 8.17157 17 7.58579 16.4142C7 15.8284 7 14.8856 7 13V11Z" stroke="#4E4E4E" stroke-linecap="round"/>
<path d="M13 10H11C10.4477 10 10 10.4477 10 11V13C10 13.5523 10.4477 14 11 14H13C13.5523 14 14 13.5523 14 13V11C14 10.4477 13.5523 10 13 10Z" fill="#4E4E4E"/>
<path d="M10 7V4" stroke="#4E4E4E" stroke-linecap="round"/>
<path d="M14 7V4" stroke="#4E4E4E" stroke-linecap="round"/>
<path d="M17 10H20" stroke="#4E4E4E" stroke-linecap="round"/>
<path d="M17 14H20" stroke="#4E4E4E" stroke-linecap="round"/>
<path d="M10 20V17" stroke="#4E4E4E" stroke-linecap="round"/>
<path d="M14 20V17" stroke="#4E4E4E" stroke-linecap="round"/>
<path d="M4 10H7" stroke="#4E4E4E" stroke-linecap="round"/>
<path d="M4 14H7" stroke="#4E4E4E" stroke-linecap="round"/>
</svg>
