<svg width="117" height="24" viewBox="0 0 117 24" fill="none" xmlns="http://www.w3.org/2000/svg">
<path d="M10.4363 3.35577C11.0554 2.0271 12.9446 2.0271 13.5637 3.35577L15.0026 6.4436C15.254 6.98311 15.7658 7.35492 16.3566 7.4273L19.7379 7.84158C21.1929 8.01983 21.7767 9.81657 20.7044 10.816L18.2123 13.1387C17.7769 13.5445 17.5814 14.1461 17.6952 14.7303L18.346 18.0742C18.6261 19.513 17.0977 20.6235 15.8159 19.9125L12.8368 18.2601C12.3163 17.9714 11.6837 17.9714 11.1632 18.2601L8.18415 19.9125C6.90227 20.6235 5.37388 19.513 5.65395 18.0742L6.30485 14.7303C6.41857 14.1461 6.2231 13.5445 5.78768 13.1387L3.29562 10.816C2.22331 9.81657 2.8071 8.01983 4.26207 7.84158L7.64342 7.4273C8.23421 7.35492 8.74596 6.98311 8.99736 6.4436L10.4363 3.35577Z" fill="#FFB547"/>
<path d="M33.5736 3.35577C34.1928 2.0271 36.082 2.0271 36.7011 3.35577L38.14 6.4436C38.3914 6.98311 38.9032 7.35492 39.494 7.4273L42.8753 7.84158C44.3303 8.01983 44.9141 9.81657 43.8418 10.816L41.3497 13.1387C40.9143 13.5445 40.7188 14.1461 40.8325 14.7303L41.4834 18.0742C41.7635 19.513 40.2351 20.6235 38.9532 19.9125L35.9742 18.2601C35.4537 17.9714 34.8211 17.9714 34.3006 18.2601L31.3215 19.9125C30.0397 20.6235 28.5113 19.513 28.7913 18.0742L29.4422 14.7303C29.556 14.1461 29.3605 13.5445 28.9251 13.1387L26.433 10.816C25.3607 9.81657 25.9445 8.01983 27.3995 7.84158L30.7808 7.4273C31.3716 7.35492 31.8834 6.98311 32.1348 6.4436L33.5736 3.35577Z" fill="#FFB547"/>
<path d="M56.711 3.35577C57.3302 2.0271 59.2194 2.0271 59.8385 3.35577L61.2774 6.4436C61.5288 6.98311 62.0406 7.35492 62.6314 7.4273L66.0127 7.84158C67.4677 8.01983 68.0515 9.81657 66.9792 10.816L64.4871 13.1387C64.0517 13.5445 63.8562 14.1461 63.9699 14.7303L64.6208 18.0742C64.9009 19.513 63.3725 20.6235 62.0906 19.9125L59.1116 18.2601C58.5911 17.9714 57.9585 17.9714 57.438 18.2601L54.4589 19.9125C53.1771 20.6235 51.6487 19.513 51.9287 18.0742L52.5796 14.7303C52.6934 14.1461 52.4979 13.5445 52.0625 13.1387L49.5704 10.816C48.4981 9.81657 49.0819 8.01983 50.5369 7.84158L53.9182 7.4273C54.509 7.35492 55.0207 6.98311 55.2721 6.4436L56.711 3.35577Z" fill="#FFB547"/>
<path d="M79.8485 3.35577C80.4676 2.0271 82.3568 2.0271 82.976 3.35577L84.4149 6.4436C84.6663 6.98311 85.178 7.35492 85.7688 7.4273L89.1502 7.84158C90.6051 8.01983 91.1889 9.81657 90.1166 10.816L87.6245 13.1387C87.1891 13.5445 86.9937 14.1461 87.1074 14.7303L87.7583 18.0742C88.0384 19.513 86.51 20.6235 85.2281 19.9125L82.249 18.2601C81.7285 17.9714 81.096 17.9714 80.5754 18.2601L77.5964 19.9125C76.3145 20.6235 74.7861 19.513 75.0662 18.0742L75.7171 14.7303C75.8308 14.1461 75.6353 13.5445 75.1999 13.1387L72.7079 10.816C71.6355 9.81657 72.2193 8.01983 73.6743 7.84158L77.0556 7.4273C77.6464 7.35492 78.1582 6.98311 78.4096 6.4436L79.8485 3.35577Z" fill="#FFB547"/>
<path d="M102.986 3.35577C103.605 2.0271 105.494 2.0271 106.113 3.35577L107.552 6.4436C107.804 6.98311 108.315 7.35492 108.906 7.4273L112.288 7.84158C113.743 8.01983 114.326 9.81657 113.254 10.816L110.762 13.1387C110.327 13.5445 110.131 14.1461 110.245 14.7303L110.896 18.0742C111.176 19.513 109.647 20.6235 108.365 19.9125L105.386 18.2601C104.866 17.9714 104.233 17.9714 103.713 18.2601L100.734 19.9125C99.4519 20.6235 97.9235 19.513 98.2036 18.0742L98.8545 14.7303C98.9682 14.1461 98.7727 13.5445 98.3373 13.1387L95.8452 10.816C94.7729 9.81657 95.3567 8.01983 96.8117 7.84158L100.193 7.4273C100.784 7.35492 101.296 6.98311 101.547 6.4436L102.986 3.35577Z" fill="#FFB547"/>
</svg>
