<svg width="20" height="19" viewBox="0 0 20 19" fill="none" xmlns="http://www.w3.org/2000/svg">
<path d="M8.88946 1.56696C9.32917 0.623367 10.6708 0.623368 11.1105 1.56696L12.5494 4.65479C12.8737 5.35066 13.5338 5.83023 14.2958 5.92359L17.6771 6.33786C18.7104 6.46446 19.125 7.74046 18.3635 8.45023L15.8714 10.7729C15.3098 11.2963 15.0577 12.0723 15.2044 12.8259L15.8553 16.1697C16.0542 17.1915 14.9687 17.9802 14.0584 17.4752L11.0793 15.8229C10.4079 15.4505 9.59205 15.4505 8.92069 15.8229L5.94163 17.4752C5.03127 17.9802 3.94584 17.1915 4.14474 16.1697L4.79564 12.8258C4.94232 12.0723 4.6902 11.2963 4.12859 10.7729L1.63653 8.45023C0.874993 7.74046 1.28959 6.46446 2.32288 6.33786L5.70422 5.92359C6.46624 5.83023 7.12631 5.35066 7.45057 4.65479L8.88946 1.56696Z" fill="url(#paint0_linear_8540_374)" stroke="#FFB547"/>
<defs>
<linearGradient id="paint0_linear_8540_374" x1="9.11898" y1="9.85054" x2="17.8781" y2="9.85054" gradientUnits="userSpaceOnUse">
<stop offset="0.394791" stop-color="#FFB547"/>
<stop offset="0.394891" stop-color="#FFB547" stop-opacity="0"/>
</linearGradient>
</defs>
</svg>
