<svg width="32" height="32" viewBox="0 0 32 32" fill="none" xmlns="http://www.w3.org/2000/svg">
<rect width="32" height="32" fill="white"/>
<path d="M3 4.25C2.58579 4.25 2.25 4.58579 2.25 5C2.25 5.41421 2.58579 5.75 3 5.75V4.25ZM7 5L7.73859 4.86966C7.67534 4.51127 7.36393 4.25 7 4.25V5ZM10 22L9.26141 22.1303C9.32466 22.4887 9.63607 22.75 10 22.75V22ZM26 22.75C26.4142 22.75 26.75 22.4142 26.75 22C26.75 21.5858 26.4142 21.25 26 21.25V22.75ZM10 15.9167C9.58579 15.9167 9.25 16.2525 9.25 16.6667C9.25 17.0809 9.58579 17.4167 10 17.4167V15.9167ZM25.59 16.6667L25.5905 15.9167H25.59V16.6667ZM26.0806 16.2648L26.816 16.412L26.8161 16.4119L26.0806 16.2648ZM27.8806 7.26479L27.1452 7.1176L27.1452 7.1177L27.8806 7.26479ZM27.39 6.66667V7.41667L27.3905 7.41667L27.39 6.66667ZM8 5.91667C7.58579 5.91667 7.25 6.25245 7.25 6.66667C7.25 7.08088 7.58579 7.41667 8 7.41667V5.91667ZM11.25 26C11.25 26.1381 11.1381 26.25 11 26.25V27.75C11.9665 27.75 12.75 26.9665 12.75 26H11.25ZM11 26.25C10.8619 26.25 10.75 26.1381 10.75 26H9.25C9.25 26.9665 10.0335 27.75 11 27.75V26.25ZM10.75 26C10.75 25.8619 10.8619 25.75 11 25.75V24.25C10.0335 24.25 9.25 25.0335 9.25 26H10.75ZM11 25.75C11.1381 25.75 11.25 25.8619 11.25 26H12.75C12.75 25.0335 11.9665 24.25 11 24.25V25.75ZM25.25 26C25.25 26.1381 25.1381 26.25 25 26.25V27.75C25.9665 27.75 26.75 26.9665 26.75 26H25.25ZM25 26.25C24.8619 26.25 24.75 26.1381 24.75 26H23.25C23.25 26.9665 24.0335 27.75 25 27.75V26.25ZM24.75 26C24.75 25.8619 24.8619 25.75 25 25.75V24.25C24.0335 24.25 23.25 25.0335 23.25 26H24.75ZM25 25.75C25.1381 25.75 25.25 25.8619 25.25 26H26.75C26.75 25.0335 25.9665 24.25 25 24.25V25.75ZM3 5.75H7V4.25H3V5.75ZM6.26141 5.13034L9.26141 22.1303L10.7386 21.8697L7.73859 4.86966L6.26141 5.13034ZM10 22.75H26V21.25H10V22.75ZM10 17.4167H25.59V15.9167H10V17.4167ZM25.5895 17.4167C25.8786 17.4169 26.1588 17.3169 26.3824 17.1337L25.4319 15.9733C25.4767 15.9366 25.5327 15.9166 25.5905 15.9167L25.5895 17.4167ZM26.3824 17.1337C26.6061 16.9505 26.7593 16.6955 26.816 16.412L25.3452 16.1176C25.3566 16.0609 25.3872 16.0099 25.4319 15.9733L26.3824 17.1337ZM26.8161 16.4119L28.6161 7.41188L27.1452 7.1177L25.3452 16.1177L26.8161 16.4119ZM28.616 7.41198C28.6524 7.23055 28.6479 7.04332 28.6031 6.86381L27.1478 7.22724C27.1388 7.19133 27.1379 7.15389 27.1452 7.1176L28.616 7.41198ZM28.6031 6.86381C28.5583 6.68429 28.4741 6.51696 28.3568 6.37391L27.1971 7.32522C27.1736 7.29661 27.1568 7.26315 27.1478 7.22724L28.6031 6.86381ZM28.3568 6.37391C28.2395 6.23086 28.0918 6.11563 27.9245 6.03656L27.2835 7.39269C27.25 7.37687 27.2205 7.35383 27.1971 7.32522L28.3568 6.37391ZM27.9245 6.03656C27.7573 5.95749 27.5745 5.91654 27.3895 5.91667L27.3905 7.41667C27.3535 7.41669 27.317 7.4085 27.2835 7.39269L27.9245 6.03656ZM27.39 5.91667H8V7.41667H27.39V5.91667Z" fill="black"/>
</svg>
