<svg width="32" height="32" viewBox="0 0 32 32" fill="none" xmlns="http://www.w3.org/2000/svg">
<path d="M15.488 24.69L15.0952 25.3289L15.0982 25.3307L15.488 24.69ZM16.512 24.69L16.9019 25.3307L16.9048 25.3289L16.512 24.69ZM16 10L15.3989 10.4486C15.5405 10.6383 15.7633 10.75 16 10.75C16.2367 10.75 16.4595 10.6383 16.6011 10.4486L16 10ZM11 6.25C7.83197 6.25 5.25 8.79464 5.25 11.95H6.75C6.75 9.63736 8.64603 7.75 11 7.75V6.25ZM5.25 11.95C5.25 13.1622 5.49279 15.1571 6.86435 17.5365C8.23344 19.9117 10.7037 22.6291 15.0952 25.3289L15.8808 24.0511C11.6593 21.4559 9.38556 18.9068 8.1639 16.7875C6.94471 14.6724 6.75 12.9448 6.75 11.95H5.25ZM15.0982 25.3307C15.3699 25.4961 15.6819 25.5835 16 25.5835V24.0835C15.9569 24.0835 15.9147 24.0717 15.8778 24.0493L15.0982 25.3307ZM16 25.5835C16.3181 25.5835 16.6301 25.4961 16.9018 25.3307L16.1222 24.0493C16.0853 24.0717 16.0431 24.0835 16 24.0835V25.5835ZM16.9048 25.3289C21.2963 22.6291 23.7666 19.9117 25.1357 17.5365C26.5072 15.1571 26.75 13.1622 26.75 11.95H25.25C25.25 12.9448 25.0553 14.6724 23.8361 16.7875C22.6144 18.9068 20.3407 21.4559 16.1192 24.0511L16.9048 25.3289ZM26.75 11.95C26.75 8.79464 24.168 6.25 21 6.25V7.75C23.354 7.75 25.25 9.63736 25.25 11.95H26.75ZM21 6.25C19.3584 6.25 17.9392 7.13256 16.986 7.92256C16.4988 8.32639 16.1064 8.72849 15.8354 9.02961C15.6995 9.18066 15.5931 9.30757 15.5194 9.3983C15.4825 9.4437 15.4538 9.48014 15.4336 9.50614C15.4235 9.51914 15.4155 9.52953 15.4097 9.53714C15.4068 9.54094 15.4045 9.54405 15.4027 9.54643C15.4018 9.54763 15.401 9.54864 15.4004 9.54947C15.4001 9.54989 15.3998 9.55026 15.3996 9.55058C15.3994 9.55074 15.3993 9.55095 15.3992 9.55103C15.3991 9.55123 15.3989 9.55141 16 10C16.6011 10.4486 16.6009 10.4488 16.6008 10.4489C16.6008 10.4489 16.6007 10.4491 16.6006 10.4491C16.6005 10.4493 16.6005 10.4494 16.6004 10.4494C16.6003 10.4495 16.6004 10.4495 16.6006 10.4492C16.601 10.4487 16.6019 10.4475 16.6033 10.4457C16.6061 10.4419 16.6111 10.4355 16.6181 10.4265C16.632 10.4085 16.6541 10.3805 16.6838 10.3439C16.7434 10.2706 16.8334 10.1631 16.9505 10.0329C17.1857 9.77151 17.5256 9.42361 17.9432 9.07744C18.7998 8.36744 19.8806 7.75 21 7.75V6.25ZM16 10C16.6011 9.55141 16.6009 9.55123 16.6008 9.55103C16.6007 9.55095 16.6006 9.55074 16.6004 9.55058C16.6002 9.55026 16.5999 9.54989 16.5996 9.54947C16.599 9.54864 16.5982 9.54763 16.5973 9.54643C16.5955 9.54405 16.5932 9.54094 16.5903 9.53714C16.5845 9.52953 16.5765 9.51914 16.5664 9.50614C16.5462 9.48014 16.5175 9.4437 16.4806 9.3983C16.4069 9.30757 16.3005 9.18066 16.1646 9.02961C15.8936 8.72849 15.5012 8.32639 15.014 7.92256C14.0608 7.13256 12.6416 6.25 11 6.25V7.75C12.1194 7.75 13.2002 8.36744 14.0568 9.07744C14.4744 9.42361 14.8143 9.77151 15.0495 10.0329C15.1666 10.1631 15.2566 10.2706 15.3162 10.3439C15.3459 10.3805 15.368 10.4085 15.3819 10.4265C15.3889 10.4355 15.3939 10.4419 15.3967 10.4457C15.3981 10.4475 15.399 10.4487 15.3994 10.4492C15.3996 10.4495 15.3997 10.4495 15.3996 10.4494C15.3995 10.4494 15.3995 10.4493 15.3994 10.4491C15.3993 10.4491 15.3992 10.4489 15.3992 10.4489C15.3991 10.4488 15.3989 10.4486 16 10Z" fill="black"/>
</svg>
