<svg width="101" height="24" viewBox="0 0 101 24" fill="none" xmlns="http://www.w3.org/2000/svg">
<path d="M0.539062 14.8594H2.26562C2.32812 15.4167 2.60677 15.8646 3.10156 16.2031C3.59635 16.5417 4.21615 16.7109 4.96094 16.7109C5.66927 16.7109 6.2526 16.5469 6.71094 16.2188C7.17448 15.8906 7.40625 15.474 7.40625 14.9688C7.40625 14.5312 7.24219 14.1745 6.91406 13.8984C6.58594 13.6172 6.05729 13.388 5.32812 13.2109L3.86719 12.8594C2.83073 12.6094 2.0651 12.237 1.57031 11.7422C1.08073 11.2474 0.835938 10.6068 0.835938 9.82031C0.835938 8.85156 1.21615 8.0625 1.97656 7.45312C2.74219 6.84375 3.72917 6.53906 4.9375 6.53906C6.125 6.53906 7.09375 6.84375 7.84375 7.45312C8.59375 8.05729 8.98177 8.84635 9.00781 9.82031H7.30469C7.2526 9.26302 7.01042 8.82292 6.57812 8.5C6.15104 8.17708 5.59635 8.01562 4.91406 8.01562C4.23698 8.01562 3.6849 8.17188 3.25781 8.48438C2.83594 8.79688 2.625 9.20312 2.625 9.70312C2.625 10.099 2.78385 10.4245 3.10156 10.6797C3.41927 10.9297 3.94271 11.1458 4.67188 11.3281L5.91406 11.6328C7.07031 11.9036 7.90365 12.2865 8.41406 12.7812C8.92969 13.2708 9.1875 13.9297 9.1875 14.7578C9.1875 15.8099 8.79688 16.6458 8.01562 17.2656C7.23438 17.8802 6.17448 18.1875 4.83594 18.1875C3.58073 18.1875 2.5625 17.888 1.78125 17.2891C1.00521 16.6849 0.591146 15.875 0.539062 14.8594ZM15.5219 11.5859C15.1521 11.1901 14.6755 10.9922 14.0922 10.9922C13.5089 10.9922 13.0245 11.1927 12.6391 11.5938C12.2536 11.9896 12.0401 12.5026 11.9984 13.1328H16.1078C16.087 12.4974 15.8917 11.9818 15.5219 11.5859ZM16.1 15.5859H17.7016C17.5818 16.3411 17.1964 16.9583 16.5453 17.4375C15.8943 17.9167 15.1 18.1562 14.1625 18.1562C12.9594 18.1562 12.0115 17.7786 11.3188 17.0234C10.6313 16.263 10.2875 15.2318 10.2875 13.9297C10.2875 12.638 10.6313 11.599 11.3188 10.8125C12.0115 10.026 12.9359 9.63281 14.0922 9.63281C15.2276 9.63281 16.1286 10.0052 16.7953 10.75C17.462 11.4896 17.7953 12.4844 17.7953 13.7344V14.3125H11.9906V14.4141C11.9906 15.1328 12.1911 15.7083 12.5922 16.1406C12.9932 16.5729 13.5297 16.7891 14.2016 16.7891C14.6755 16.7891 15.0818 16.6797 15.4203 16.4609C15.7589 16.2422 15.9854 15.9505 16.1 15.5859ZM19.2703 18V6.72656H20.9578V18H19.2703ZM27.6594 11.5859C27.2896 11.1901 26.813 10.9922 26.2297 10.9922C25.6464 10.9922 25.162 11.1927 24.7766 11.5938C24.3911 11.9896 24.1776 12.5026 24.1359 13.1328H28.2453C28.2245 12.4974 28.0292 11.9818 27.6594 11.5859ZM28.2375 15.5859H29.8391C29.7193 16.3411 29.3339 16.9583 28.6828 17.4375C28.0318 17.9167 27.2375 18.1562 26.3 18.1562C25.0969 18.1562 24.149 17.7786 23.4562 17.0234C22.7687 16.263 22.425 15.2318 22.425 13.9297C22.425 12.638 22.7687 11.599 23.4562 10.8125C24.149 10.026 25.0734 9.63281 26.2297 9.63281C27.3651 9.63281 28.2661 10.0052 28.9328 10.75C29.5995 11.4896 29.9328 12.4844 29.9328 13.7344V14.3125H24.1281V14.4141C24.1281 15.1328 24.3286 15.7083 24.7297 16.1406C25.1307 16.5729 25.6672 16.7891 26.3391 16.7891C26.813 16.7891 27.2193 16.6797 27.5578 16.4609C27.8964 16.2422 28.1229 15.9505 28.2375 15.5859ZM38.4 12.6094H36.7906C36.7021 12.1458 36.4885 11.7682 36.15 11.4766C35.8167 11.1849 35.387 11.0391 34.8609 11.0391C34.2047 11.0391 33.6786 11.2969 33.2828 11.8125C32.8922 12.3229 32.6969 13.0156 32.6969 13.8906C32.6969 14.7812 32.8922 15.4792 33.2828 15.9844C33.6786 16.4896 34.2099 16.7422 34.8766 16.7422C35.3922 16.7422 35.8141 16.6094 36.1422 16.3438C36.4755 16.0729 36.6917 15.6979 36.7906 15.2188H38.4156C38.3271 16.099 37.9573 16.8099 37.3062 17.3516C36.6604 17.888 35.8453 18.1562 34.8609 18.1562C33.6786 18.1562 32.7359 17.776 32.0328 17.0156C31.3297 16.25 30.9781 15.2083 30.9781 13.8906C30.9781 12.5885 31.3297 11.5547 32.0328 10.7891C32.7359 10.0182 33.6734 9.63281 34.8453 9.63281C35.8661 9.63281 36.6943 9.91927 37.3297 10.4922C37.9651 11.0599 38.3219 11.7656 38.4 12.6094ZM40.2031 7.83594H41.8984V9.78125H43.4609V11.1172H41.8984V15.6484C41.8984 16.0026 41.9792 16.263 42.1406 16.4297C42.3021 16.5964 42.5547 16.6797 42.8984 16.6797C43.1484 16.6797 43.3333 16.6667 43.4531 16.6406V17.9766C43.2448 18.0286 42.9323 18.0547 42.5156 18.0547C41.6875 18.0547 41.0938 17.8854 40.7344 17.5469C40.3802 17.2031 40.2031 16.6328 40.2031 15.8359V11.1172H39.0078V9.78125H40.2031V7.83594ZM48.5047 6.72656H52.4813C54.1583 6.72656 55.4656 7.21875 56.4031 8.20312C57.3458 9.1875 57.8172 10.5677 57.8172 12.3438C57.8172 14.125 57.3484 15.513 56.4109 16.5078C55.4734 17.5026 54.1635 18 52.4813 18H48.5047V6.72656ZM50.2547 8.23438V16.4844H52.3172C53.5151 16.4844 54.4318 16.1302 55.0672 15.4219C55.7078 14.7135 56.0281 13.6927 56.0281 12.3594C56.0281 11.0312 55.7078 10.013 55.0672 9.30469C54.4266 8.59115 53.5099 8.23438 52.3172 8.23438H50.2547ZM62.2609 16.8047C62.8547 16.8047 63.3521 16.625 63.7531 16.2656C64.1594 15.901 64.3625 15.4531 64.3625 14.9219V14.2734L62.3391 14.3984C61.8339 14.4349 61.4432 14.5599 61.1672 14.7734C60.8964 14.9818 60.7609 15.263 60.7609 15.6172C60.7609 15.9766 60.8964 16.2656 61.1672 16.4844C61.4432 16.6979 61.8078 16.8047 62.2609 16.8047ZM61.7922 18.1406C60.9849 18.1406 60.326 17.9115 59.8156 17.4531C59.3104 16.9948 59.0578 16.3984 59.0578 15.6641C59.0578 14.9453 59.3234 14.375 59.8547 13.9531C60.3859 13.526 61.1385 13.2865 62.1125 13.2344L64.3625 13.1016V12.4688C64.3625 12.0104 64.2167 11.6536 63.925 11.3984C63.6333 11.138 63.2297 11.0078 62.7141 11.0078C62.2349 11.0078 61.8443 11.1146 61.5422 11.3281C61.2453 11.5417 61.0578 11.8359 60.9797 12.2109H59.3859C59.4328 11.4505 59.7609 10.8307 60.3703 10.3516C60.9797 9.8724 61.7818 9.63281 62.7766 9.63281C63.7714 9.63281 64.563 9.8776 65.1516 10.3672C65.7453 10.8568 66.0422 11.513 66.0422 12.3359V18H64.425V16.6484H64.3859C64.1516 17.1016 63.7948 17.4635 63.3156 17.7344C62.8417 18.0052 62.3339 18.1406 61.7922 18.1406ZM68.275 7.83594H69.9703V9.78125H71.5328V11.1172H69.9703V15.6484C69.9703 16.0026 70.051 16.263 70.2125 16.4297C70.374 16.5964 70.6266 16.6797 70.9703 16.6797C71.2203 16.6797 71.4052 16.6667 71.525 16.6406V17.9766C71.3167 18.0286 71.0042 18.0547 70.5875 18.0547C69.7594 18.0547 69.1656 17.8854 68.8063 17.5469C68.4521 17.2031 68.275 16.6328 68.275 15.8359V11.1172H67.0797V9.78125H68.275V7.83594ZM77.6875 11.5859C77.3177 11.1901 76.8411 10.9922 76.2578 10.9922C75.6745 10.9922 75.1901 11.1927 74.8047 11.5938C74.4193 11.9896 74.2057 12.5026 74.1641 13.1328H78.2734C78.2526 12.4974 78.0573 11.9818 77.6875 11.5859ZM78.2656 15.5859H79.8672C79.7474 16.3411 79.362 16.9583 78.7109 17.4375C78.0599 17.9167 77.2656 18.1562 76.3281 18.1562C75.125 18.1562 74.1771 17.7786 73.4844 17.0234C72.7969 16.263 72.4531 15.2318 72.4531 13.9297C72.4531 12.638 72.7969 11.599 73.4844 10.8125C74.1771 10.026 75.1016 9.63281 76.2578 9.63281C77.3932 9.63281 78.2943 10.0052 78.9609 10.75C79.6276 11.4896 79.9609 12.4844 79.9609 13.7344V14.3125H74.1562V14.4141C74.1562 15.1328 74.3568 15.7083 74.7578 16.1406C75.1589 16.5729 75.6953 16.7891 76.3672 16.7891C76.8411 16.7891 77.2474 16.6797 77.5859 16.4609C77.9245 16.2422 78.151 15.9505 78.2656 15.5859Z" fill="#A2A3B1"/>
<path d="M89 10L93 14L97 10" stroke="#A2A3B1" stroke-width="2" stroke-linecap="round" stroke-linejoin="round"/>
</svg>
