<svg width="24" height="24" viewBox="0 0 24 24" fill="none" xmlns="http://www.w3.org/2000/svg">
<rect width="24" height="24" rx="12" fill="#B2B2B2"/>
<path d="M17.2229 13.9801C17.0473 13.8418 15.4969 12.1345 14.6189 11.3387C14.6152 11.335 14.6152 11.335 14.6152 11.3313V7.65504C14.6152 6.74346 13.8717 6 12.9601 6H7.53923C6.69116 6 6 6.69489 6 7.53923V16.1619C6 17.0735 6.74346 17.8169 7.65504 17.8169H9.23163H9.63138C9.69863 17.8169 9.75467 17.7572 9.7472 17.6899L9.66127 16.9577C9.6538 16.8979 9.60523 16.8568 9.54545 16.8568H9.39975H9.31009C9.24658 16.8568 9.19427 16.8045 9.19427 16.741V6.94521C9.19427 6.88169 9.24658 6.82939 9.31009 6.82939H12.9714C13.3412 6.82939 13.6438 7.132 13.6438 7.50187V15.5044V16.2927C13.6438 16.5467 13.4682 16.7634 13.2329 16.8306C13.2291 16.8306 13.2291 16.8306 13.2254 16.8306C12.8257 16.6139 12.3549 15.6874 12.2839 15.5417C12.2765 15.5305 12.2727 15.5156 12.2727 15.5044C12.2466 15.269 11.9813 12.99 10.7671 12.99C10.7335 12.99 10.6999 12.99 10.6663 12.9938C10.6663 12.9938 9.69489 13.076 10.4981 15.8443C10.4981 15.8518 10.5019 15.8555 10.5019 15.863L10.8568 18.9303C10.8568 18.934 10.8568 18.9377 10.8605 18.9452C10.8904 19.061 11.2939 20.6264 12.3362 21.736C12.3549 21.7584 12.3661 21.7846 12.3661 21.8144V22.0797C12.3661 22.0872 12.3624 22.0909 12.3549 22.0909H12.2615C12.0336 22.0909 11.8468 22.2777 11.8468 22.5056V23.5853C11.8468 23.8132 12.0336 24 12.2615 24H16.6588C16.8867 24 17.0735 23.8132 17.0735 23.5853V22.5131C17.0735 22.2852 16.8867 22.0984 16.6588 22.0984C16.6513 22.0984 16.6476 22.0946 16.6476 22.0872C16.7933 20.7347 17.3163 16.1096 17.5965 15.7472C17.604 15.736 17.6115 15.7248 17.6152 15.7098C17.6638 15.5417 17.9066 14.5143 17.2229 13.9801ZM7.72976 16.7484C7.72976 16.8082 7.6812 16.8531 7.62516 16.8531C7.25903 16.8531 6.96015 16.5542 6.96015 16.188V7.4944C6.96015 7.12827 7.25903 6.82939 7.62516 6.82939C7.68493 6.82939 7.72976 6.87796 7.72976 6.934V16.7484Z" fill="white"/>
</svg>
