<svg width="32" height="32" viewBox="0 0 32 32" fill="none" xmlns="http://www.w3.org/2000/svg">
<path d="M23.25 27C23.25 27.4142 23.5858 27.75 24 27.75C24.4142 27.75 24.75 27.4142 24.75 27H23.25ZM24 24.3333H24.75H24ZM19.4667 19V18.25V19ZM11.5333 19V18.25V19ZM7 24.3333H6.25H7ZM6.25 27C6.25 27.4142 6.58579 27.75 7 27.75C7.41421 27.75 7.75 27.4142 7.75 27H6.25ZM24.75 27V24.3333H23.25V27H24.75ZM24.75 24.3333C24.75 22.7558 24.2184 21.2231 23.2437 20.0764L22.1008 21.0478C22.8264 21.9015 23.25 23.0819 23.25 24.3333H24.75ZM23.2437 20.0764C22.2658 18.9259 20.9109 18.25 19.4667 18.25V19.75C20.4271 19.75 21.3783 20.1979 22.1008 21.0478L23.2437 20.0764ZM19.4667 18.25H11.5333V19.75H19.4667V18.25ZM11.5333 18.25C10.0891 18.25 8.7342 18.9259 7.75633 20.0764L8.89924 21.0478C9.6217 20.1979 10.5729 19.75 11.5333 19.75V18.25ZM7.75633 20.0764C6.78161 21.2231 6.25 22.7558 6.25 24.3333H7.75C7.75 23.0819 8.17362 21.9015 8.89924 21.0478L7.75633 20.0764ZM6.25 24.3333V27H7.75V24.3333H6.25ZM20.25 9.5C20.25 11.5711 18.5711 13.25 16.5 13.25V14.75C19.3995 14.75 21.75 12.3995 21.75 9.5H20.25ZM16.5 13.25C14.4289 13.25 12.75 11.5711 12.75 9.5H11.25C11.25 12.3995 13.6005 14.75 16.5 14.75V13.25ZM12.75 9.5C12.75 7.42893 14.4289 5.75 16.5 5.75V4.25C13.6005 4.25 11.25 6.6005 11.25 9.5H12.75ZM16.5 5.75C18.5711 5.75 20.25 7.42893 20.25 9.5H21.75C21.75 6.6005 19.3995 4.25 16.5 4.25V5.75Z" fill="black"/>
</svg>
